<?xml version="1.0" encoding="utf-8" ?><svg xmlns="http://www.w3.org/2000/svg" xmlns:xlink="http://www.w3.org/1999/xlink" width="225" height="225" viewBox="0 0 225 225"><path d="M18.6671 93.3082C19.9261 93.1225 28.3705 93.0613 29.3703 93.4467C33.4012 95.0004 35.4126 98.9618 30.4599 101.402C29.7218 103.642 36.9993 102.565 32.8748 109.853C28.8759 112.547 23.2298 111.328 18.1087 111.592C19.1626 110.949 20.9745 110.378 21.0732 108.97C21.3918 104.423 21.5438 99.4838 20.9282 94.9684C20.8346 94.2815 19.4048 94.4566 18.6671 93.3082ZM30.332 109.519C31.6599 107.922 31.7364 104.753 30.0007 103.406C28.3807 102.148 25.5235 102.656 23.5391 102.432C23.8248 105.087 22.7837 111.17 26.7099 110.731C27.9883 110.583 29.2218 110.17 30.332 109.519ZM23.7007 101.261C26.0562 101.354 27.5869 101.599 29.7423 100.6C32.0629 94.288 28.5941 94.4107 23.4909 94.2012C23.8934 96.0922 23.8061 99.2793 23.7007 101.261Z"/><path d="M83.9193 93.3016C86.9538 92.9666 96.7301 92.621 98.0469 95.9369C99.4257 99.409 97.4153 100.626 94.7668 101.85C95.3174 102.031 95.8635 102.226 96.4047 102.434C99.6105 103.691 99.7732 106.452 98.5455 109.239C95.354 112.663 88.0064 111.233 83.0178 111.588C84.0315 111.047 85.3127 110.583 86.3961 110.155C86.7373 106.103 86.5424 98.9145 86.4713 94.7691C85.5504 94.357 84.6216 94.0227 83.9193 93.3016ZM89.2392 110.452C91.5566 110.633 93.4833 110.907 95.6143 109.765C96.8259 107.688 97.5069 104.673 95.0244 103.297C93.042 102.198 91.0741 102.497 88.9207 102.355C89.005 104.539 88.9789 108.461 89.2392 110.452ZM88.9794 101.497C91.0863 101.515 92.9066 101.707 94.797 100.739C95.8362 99.1098 96.7042 96.4034 94.65 95.116C92.8839 94.0091 90.9713 94.2259 88.9552 94.2274C89.13 96.5604 89.0229 99.1409 88.9794 101.497Z"/><path d="M143.726 92.894C144.023 92.9261 144.598 93.1204 144.676 93.2884C147.139 98.611 148.469 104.794 151.396 109.872C151.684 110.373 152.961 111.305 153.453 111.666C151.639 111.412 147.278 111.738 146.346 111.186C146.829 110.552 147.281 110.562 148.151 110.253C147.664 108.503 147.095 106.699 146.573 104.952C145.811 104.94 145.047 104.875 144.287 104.82C142.725 104.844 141.163 104.835 139.601 104.793C139.13 106.005 138.095 108.345 138.104 109.639C138.107 110.002 139.227 110.816 139.618 111.149L139.639 111.472C137.429 111.47 135.985 111.456 133.749 111.564L136.181 110.061C138.281 106.32 140.206 98.0382 142.47 93.9598C142.647 93.641 143.394 93.1162 143.726 92.894ZM139.832 104.024L143.691 103.861C144.58 103.873 145.273 104.038 145.938 103.626C145.236 100.882 143.944 98.2095 143.279 95.5957L142.862 95.3454C142.097 98.1068 140.842 101.293 139.832 104.024Z"/><path d="M44.0777 93.315C47.9252 92.7765 54.3306 93.7128 58.5892 93.2302C58.5748 94.4161 59.2252 97.5611 58.7327 98.2309C58.1119 97.835 57.136 95.7934 56.0089 94.5802C53.9864 94.2416 51.2795 94.2267 49.1845 94.1771C49.5522 96.152 49.3181 99.4004 49.1676 101.443C54.1499 101.568 53.9525 101.316 55.2803 96.5964C55.3965 99.104 55.2891 104.461 55.1025 106.88C54.6282 105.561 54.163 103.909 53.7407 102.546C52.0707 102.463 50.8321 102.372 49.1784 102.143C49.4298 104.39 49.3552 107.92 49.5361 110.466C56.41 110.858 56.5989 110.685 59.5143 104.599C59.5547 106.296 59.1932 109.685 59.0539 111.492C54.357 111.396 47.5427 111.355 42.9458 111.669C44.1734 111.161 45.3983 110.647 46.6205 110.126C47.3602 106.297 46.7469 100.724 46.8446 96.7353C46.9222 93.5699 45.1899 94.7974 44.0777 93.315Z"/><path d="M109.557 93.3374C112.031 92.9499 120.628 93.4738 123.947 93.3342C124.084 95.5594 124.207 97.7855 124.315 100.012C123.131 97.4589 123.349 96.7481 121.217 94.583C119.191 94.1632 116.541 94.2238 114.428 94.1979C114.749 96.6137 114.579 98.8924 114.482 101.315C119.001 101.632 119.007 101.454 120.573 97.2504C120.462 100.279 120.526 103.537 120.538 106.588C118.824 101.899 119.216 102.851 114.454 102.105C114.708 104.511 114.639 107.806 114.821 110.429C121.739 111.059 122.278 110.321 124.994 104.206C124.765 106.814 124.435 108.741 124.284 111.518C119.851 111.323 113.368 111.409 108.92 111.563C109.773 111.092 110.934 110.595 111.839 110.178C112.567 106.949 112.438 98.3267 111.769 94.7912C111.671 94.2749 110.271 94.1763 109.557 93.3374Z"/><path d="M170.628 92.8619C172.818 92.7881 174.279 93.2687 176.352 93.8884C176.434 95.7141 176.378 98.3361 176.325 100.154C175.596 99.0039 174.601 96.8959 173.902 95.5918C161.268 88.3766 160.258 112.631 173.124 109.077C174.994 108.316 176.166 106.77 177.5 105.281C177.018 106.857 176.612 108.298 175.537 109.587C173.007 112.679 167.164 112.379 164.403 109.874C159.359 105.299 160.85 94.9217 167.974 93.2071C168.906 92.9827 169.691 92.9216 170.628 92.8619Z"/><path d="M185.754 93.2291C189.16 93.1582 192.263 93.3666 195.927 93.2295C193.829 94.1302 191.797 94.0064 191.922 97.2243C191.978 98.6534 191.987 100.188 191.993 101.626C194.365 101.435 198.847 101.552 201.378 101.536L201.446 102.636C199.333 102.381 194.068 102.517 191.908 102.653C192.277 107.506 190.285 109.263 195.138 111.612C191.968 111.396 189.061 111.45 185.884 111.485C186.991 110.934 188.136 110.608 189.313 110.232C189.68 107.721 189.76 97.7812 189.116 94.9538C188.986 94.382 186.505 93.5146 185.754 93.2291Z"/><path d="M201.378 101.536C201.312 99.8305 201.555 95.5179 200.662 94.4224C200.072 94.244 199.596 94.0936 199.016 93.8727L198.928 93.4362C199.359 93.2874 206.153 93.2887 207.602 93.1522C206.535 93.5691 204.827 94.0785 204.117 94.8392C203.551 96.5742 203.324 106.993 203.976 109.249C204.091 109.647 205.343 110.832 205.742 111.362C203.098 111.392 200.556 111.405 197.915 111.591C203.212 109.241 200.736 107.607 201.446 102.636L201.378 101.536Z"/><path d="M81.5544 124C86.2046 123.879 91.6218 125.704 87.748 131.117C85.6782 132.498 83.9303 132.289 81.5523 132.217C81.515 129.478 81.5157 126.738 81.5544 124ZM82.6069 131.231C83.9723 131.144 85.7479 131.127 86.9633 130.518C89.6466 126.152 86.178 125.273 82.5665 124.904C82.5323 126.938 82.4397 129.225 82.6069 131.231Z"/><path d="M112.59 123.986C113.219 123.974 118.579 123.724 118.282 125.05C117.645 127.891 119.899 129.37 118.424 131.625C116.277 132.464 114.936 132.296 112.656 132.233C112.491 130.039 112.591 126.312 112.59 123.986ZM117.59 130.897C117.878 129.84 117.926 130.199 117.632 129.208C116.704 128.294 115.16 128.437 113.837 128.397C113.696 129.191 113.459 129.895 113.85 130.571C114.968 131.267 116.179 130.938 117.59 130.897ZM117.152 127.409C117.585 126.554 117.562 126.865 117.51 125.955C116.769 124.984 114.937 125.158 113.783 124.933C113.634 125.848 113.532 126.187 113.773 127.073C114.714 127.956 115.914 127.557 117.152 127.409Z"/><path d="M130.126 123.813L130.663 124.012C131.563 125 134.094 130.576 134.177 131.974L133.948 132.057C132.507 130.545 132.611 130.039 130.547 130.167C127.467 130.074 128.227 131.657 126.721 131.722C126.873 130.488 129.407 125.105 130.126 123.813ZM131.11 129.294L131.726 128.956C131.819 128.058 131.138 126.104 130.374 125.655C129.91 126.512 129.036 127.805 129.17 128.692C129.783 129.35 129.985 129.176 131.11 129.294Z"/><path d="M97.2572 123.807L97.8475 124.117C98.5832 126.378 96.6374 132.402 101.298 131.155C103.361 129.57 102.419 126.462 103.056 124.306L103.448 124.196L103.747 124.743C103.772 126.086 103.879 127.602 103.68 128.931C103.149 132.319 99.8173 134.095 97.6785 130.76C96.5922 129.067 96.783 125.686 97.2572 123.807Z"/><path d="M143.025 123.677C143.801 124.518 143.676 131.43 143.127 132.505C141.946 131.576 142.098 124.976 143.025 123.677Z"/></svg>