<?xml version="1.0" encoding="utf-8" ?><svg xmlns="http://www.w3.org/2000/svg" xmlns:xlink="http://www.w3.org/1999/xlink" width="225" height="225" viewBox="0 0 225 225"><path d="M72.4518 101.456C74.6374 97.0961 77.0912 93.9632 82.0527 92.6097C89.9211 90.463 94.3062 97.1416 96.5437 103.642C96.241 100.366 96.074 95.6075 95.5266 92.5869C99.8852 92.4158 131.468 92.1717 133.682 92.9616C134.541 94.1285 135.452 98.7642 135.732 100.386C135.963 98.757 136.445 93.6568 137.53 92.8239C139.863 92.3123 142.799 92.5305 145.21 92.5025C154.45 92.3951 163.812 92.7199 173.042 92.4679C172.848 99.7375 172.978 107.439 172.988 114.741C175.35 114.694 178.142 114.667 180.48 114.938C180.999 121.96 180.62 127.732 180.733 134.554C177.975 134.87 158.182 135.01 156.694 134.303C155.215 131.613 155.794 101.479 155.922 96.5223C155.573 97.5767 154.278 101.646 153.77 102.38C152.307 106.058 150.797 109.718 149.24 113.359C147.862 116.592 146.354 119.565 145.578 123.041C145.187 124.792 146.149 134.223 144.303 134.457C141.981 134.75 126.46 135.672 125.717 133.64C124.75 129.88 125.639 125.712 125.198 121.885C124.783 118.288 121.596 113.599 120.757 110.353C119.905 107.058 114.967 97.1726 114.857 94.6003L114.627 94.4779C114.198 96.5345 114.591 99.1204 114.631 101.229C114.718 105.942 115.359 124.478 114.303 127.713C113.579 129.929 111.991 131.811 110.059 133.087C106.657 135.335 102.697 134.883 98.8253 134.931C97.5008 134.947 95.9949 135.189 94.6968 134.894C94.0175 134.74 93.3914 134.447 93.0206 133.831C91.8132 131.827 93.398 117.904 91.9822 117.035C91.6608 118.479 91.4272 132.899 91.6334 134.691C88.4914 134.794 74.8656 135.162 72.701 134.341C70.8509 132.568 72.082 109.193 72.1011 105.36C72.1058 104.414 72.523 102.405 72.4518 101.456Z"/><path d="M85.3301 92.8503C91.8863 92.7045 94.899 100.513 95.5707 105.903C95.8604 108.229 95.714 114.01 97.7399 115.153L98.2816 114.837C98.5043 114.44 98.9934 113.562 98.9801 113.16C98.7732 106.921 97.2172 98.9909 96.2031 92.9759L114.001 92.9121L114.11 112.021C114.149 120.35 115.92 130.62 105.712 133.186C102.103 133.639 97.4557 133.484 93.7826 133.396C93.7351 129.852 94.2105 114.263 91.6621 112.712C89.3043 114.167 90.5629 130.459 90.6657 133.473L73.0132 133.44L73.0066 114.392C73.0057 111.273 72.8006 105.535 73.3804 102.708C73.7809 100.738 74.6523 98.8936 75.9201 97.3331C78.3892 94.3344 81.5839 93.1998 85.3301 92.8503Z"/><path d="M115.432 92.8641C116.656 93.0453 120.168 92.9677 121.585 92.9666L133.177 92.9584C133.485 96.9101 134.912 103.214 135.45 107.782C136.698 102.92 137.178 97.7402 138.398 92.993C144.007 92.8124 150.364 92.9468 156.031 92.9377L148.333 111.559C143.448 122.861 144.409 121.068 144.344 133.462C138.474 133.493 132.604 133.48 126.734 133.422C126.606 129.856 127.062 124.246 126.383 120.979C125.977 119.029 123.89 114.2 123.019 112.067C120.84 106.825 118.72 101.558 116.661 96.2676C116.35 95.4515 115.428 93.5596 115.432 92.8641Z"/><path d="M171.784 92.9052L172.129 93.1557C171.776 99.6322 172.091 109.289 172.029 116.075C174.625 116.045 177.402 116.068 179.975 115.837C179.703 121.16 179.842 127.857 179.81 133.283L166.066 133.333L157.304 133.289C157.276 119.853 157.317 106.416 157.427 92.9792L171.784 92.9052Z"/><path d="M52.7609 105.626C53.0679 103.567 54.0276 93.7851 54.8263 92.8973C57.5767 91.6336 69.5771 92.7534 73.6084 92.3115C73.4872 95.9882 72.5154 99.1358 72.4518 101.456C71.3629 103.195 71.34 106.359 70.8551 107.44C68.8325 116.552 66.9385 125.945 63.7408 134.699C57.2811 135.22 49.5921 134.716 43.0935 134.52C42.1793 134.492 41.3796 132.506 41.2788 131.788C40.3733 125.335 31.0742 97.1598 32.2678 92.7064C33.8338 92.1039 48.8766 92.3988 51.0548 92.4716C51.5365 96.9449 52.0164 101.189 52.7609 105.626Z"/><path d="M50.436 92.8087C50.8459 99.6662 52.2343 106.965 52.7023 114.163C53.9737 107.207 54.3211 99.5798 55.5781 92.8427C60.549 92.8219 68.4938 93.0923 73.2115 92.8465C72.1887 97.3556 70.1004 104.172 69.3803 108.256C67.0534 116.312 64.9347 125.292 62.8162 133.467L42.9499 133.463C41.7007 127.06 38.9613 117.94 37.3473 111.409C36.2438 106.944 33.8821 96.906 32.4359 92.8824C38.3464 92.9871 44.4757 92.786 50.436 92.8087Z"/><path d="M182.193 92.3096C184.166 92.0119 192.385 92.2542 194.779 92.3111C194.729 94.0976 195.032 96.4855 194.315 98.0716C193.68 99.4759 193.059 98.6602 191.722 99.1412C191.065 100.039 191.211 100.368 191.069 101.555C192.158 101.737 193.333 102.009 194.421 102.237C194.501 103.456 194.562 104.675 194.605 105.895C194.712 109.915 191.424 107.826 192.024 113.888C192.577 114.489 193.191 114.31 194.253 114.482L194.601 114.982C194.899 118.002 195.057 132.122 194.056 134.457C192.376 134.819 183.643 135.111 182.281 134.33C182.217 133.562 182.175 132.792 182.155 132.022C182.066 127.082 182.045 119.816 182.112 114.728C182.261 114.573 182.389 114.442 182.494 114.333C183.691 113.809 185.877 114.202 187.248 114.351C187.285 112.617 187.256 110.973 187.218 109.239C185.842 109.267 183.323 109.54 182.321 108.633C181.587 106.772 181.711 93.9006 182.193 92.3096Z"/><path d="M190.062 120.877L193.379 121.004C193.449 122.699 193.364 124.04 193.259 125.736C192.013 125.713 190.786 125.624 189.544 125.543L189.493 128.521L193.266 128.493C193.402 130.092 193.396 131.844 193.42 133.461L187.562 133.457L182.789 133.413L182.761 128.5C183.673 128.526 185.297 128.721 185.967 128.241C186.443 127.566 186.31 126.472 186.298 125.605C185.243 125.693 183.867 125.669 182.784 125.68L182.749 121.005L190.062 120.877Z"/><path d="M182.803 97.9736C183.776 98.1511 185.191 98.1222 185.789 98.8011C186.637 99.7647 184.389 102.535 186.577 103.237C187.03 102.479 186.964 100.172 187.285 98.8196C188.336 98.4587 188.628 98.4399 189.454 99.1992C189.867 100.2 189.637 102.105 189.576 103.273C191.073 103.268 192.003 103.307 193.473 102.984L193.402 108.022C189.98 107.923 186.22 108.015 182.773 108.035L182.803 97.9736Z"/><path d="M183.89 92.8647C187.024 92.7749 190.335 92.812 193.484 92.7981C193.501 93.8572 193.682 96.9788 193.112 97.7575L192.562 97.7679C189.296 97.8017 186.03 97.7101 182.77 97.4933C182.786 96.0967 182.36 94.0388 183.143 92.9504L183.89 92.8647Z"/><path d="M182.757 115.277C186.298 115.289 189.839 115.261 193.379 115.194C193.472 116.78 193.386 118.478 193.335 120.075C190.241 119.889 186.041 120.07 182.748 120.005L182.757 115.277Z"/><path d="M187.792 108.926L190.828 109.021C190.824 110.737 190.88 112.992 190.681 114.648C189.398 114.709 188.985 114.738 188.088 114.033C187.429 112.724 187.739 110.501 187.792 108.926Z"/></svg>