<?xml version="1.0" encoding="utf-8" ?><svg xmlns="http://www.w3.org/2000/svg" xmlns:xlink="http://www.w3.org/1999/xlink" width="225" height="225" viewBox="0 0 225 225"><path d="M48.4868 86.5958C52.1666 85.3588 54.5992 85.4624 58.4467 85.8269C61.1382 86.7405 62.7543 87.9574 64.0661 90.5702C64.1882 90.8149 64.3048 91.0623 64.4158 91.3123C64.9622 94.3607 65.1208 124.265 64.3554 126.12C63.6237 126.642 63.6355 126.491 62.6234 126.61C61.0085 126.654 59.5071 126.635 57.8915 126.602C55.572 126.23 56.4741 122.726 56.2384 121.096C55.5329 116.216 57.9232 92.965 54.2119 91.3811C50.2423 94.3807 54.1646 122.724 52.0487 126.268C51.3694 126.635 51.1751 126.613 50.414 126.653C48.8844 126.665 47.3487 126.585 45.8197 126.523L44.7447 126.423C43.1638 124.978 43.7966 118.966 43.8119 116.746L43.8449 100.365C43.8444 97.6816 44.4822 92.9054 41.9893 91.42C40.6112 92.6229 40.3424 93.5134 40.2997 95.3621C40.0804 104.874 40.4625 114.416 40.2923 123.925C40.2631 125.557 39.8209 126.573 38.0848 126.652C36.5598 126.619 35.035 126.579 33.5104 126.53C33.2439 126.505 32.8927 126.495 32.6439 126.396C32.2493 126.239 31.9983 126.069 31.8201 125.689C31.1323 124.219 31.3571 92.8206 32.1262 90.7327C32.922 88.5724 34.9628 87.3742 36.9283 86.4372C41.2159 85.1741 44.2228 85.4857 48.4868 86.5958Z"/><path d="M38.0848 126.652C38.4408 124.105 38.3782 120.934 38.3765 118.327L38.3205 103.313C38.3083 99.973 36.989 90.5867 41.9417 91.2127L41.9893 91.42C40.6112 92.6229 40.3424 93.5134 40.2997 95.3621C40.0804 104.874 40.4625 114.416 40.2923 123.925C40.2631 125.557 39.8209 126.573 38.0848 126.652Z"/><path d="M50.414 126.653C50.9552 118.928 50.4181 111.108 50.6493 103.386C50.7489 100.062 49.2687 90.529 54.1574 91.2835L54.2119 91.3811C50.2423 94.3807 54.1646 122.724 52.0487 126.268C51.3694 126.635 51.1751 126.613 50.414 126.653Z"/><path d="M33.5104 126.53C33.2439 126.505 32.8927 126.495 32.6439 126.396C32.2493 126.239 31.9983 126.069 31.8201 125.689C31.1323 124.219 31.3571 92.8206 32.1262 90.7327C32.922 88.5724 34.9628 87.3742 36.9283 86.4372C35.7878 88.1403 33.9819 90.0633 33.4996 92.0671C32.7451 95.2025 32.8871 122.53 33.5104 126.53Z"/><path d="M64.4158 91.3123C64.9622 94.3607 65.1208 124.265 64.3554 126.12C63.6237 126.642 63.6355 126.491 62.6234 126.61C63.2022 124.035 63.0182 117.308 63.0143 114.418L62.9805 93.7609L63.3019 93.5968C63.7286 92.4466 63.9882 92.539 64.4158 91.3123Z"/><path d="M41.9417 91.2127C44.0121 91.1742 45.1391 91.8602 45.3998 94.0869C45.6976 96.6297 45.582 99.3606 45.5738 101.934L45.5261 116.443C45.5169 119.56 45.3834 123.513 45.8197 126.523L44.7447 126.423C43.1638 124.978 43.7966 118.966 43.8119 116.746L43.8449 100.365C43.8444 97.6816 44.4822 92.9054 41.9893 91.42L41.9417 91.2127Z"/><path d="M54.1574 91.2835C57.2716 91.1038 57.5695 92.513 57.7337 95.434C58.032 100.742 57.6862 106.149 57.7923 111.469C57.6579 116.125 58.1248 122.237 57.8915 126.602C55.572 126.23 56.4741 122.726 56.2384 121.096C55.5329 116.216 57.9232 92.965 54.2119 91.3811L54.1574 91.2835Z"/><path d="M58.4467 85.8269C61.1382 86.7405 62.7543 87.9574 64.0661 90.5702C64.1882 90.8149 64.3048 91.0623 64.4158 91.3123C63.9882 92.539 63.7286 92.4466 63.3019 93.5968L62.9805 93.7609C62.1183 88.5928 60.8374 89.5001 58.4467 85.8269Z"/><path d="M83.0259 88.5703C87.2151 85.5491 97.1947 85.6882 101.952 87.1305C120.087 92.0949 121.176 119.022 103.759 125.764C100.916 126.694 99.7815 126.833 96.7857 126.542L95.5973 126.471C93.3575 124.933 95.1741 119.173 94.6453 116.645C94.5516 116.197 94.7188 115.423 94.8889 114.979C95.4581 114.401 96.4248 114.379 97.256 114.262L105.436 114.095C109.249 105.641 106.376 97.9688 98.723 93.1477C94.7263 91.7881 94.1739 91.7742 90.0041 92.8621C81.8084 97.8726 78.3258 104.845 82.5322 114.068C85.0845 114.149 88.0109 114.109 90.4928 114.245C91.0129 114.298 91.8956 114.268 92.1804 114.807C93.5647 117.426 93.0416 121.16 92.9978 124.073C92.956 126.859 91.7219 126.728 89.5237 126.731C86.5806 126.456 85.5196 126.104 82.7732 124.969C79.212 123.394 75.8616 119.879 73.937 116.513C68.1188 107.208 72.3716 92.5636 83.0259 88.5703Z"/><path d="M101.952 87.1305C120.087 92.0949 121.176 119.022 103.759 125.764C105.308 123.511 109.063 121.151 111.093 117.958C114.158 113.136 114.9 108.324 113.983 102.745C112.826 95.6985 107.629 91.0037 101.952 87.1305Z"/><path d="M73.937 116.513C68.1188 107.208 72.3716 92.5636 83.0259 88.5703C74.1877 96.1849 70.8877 103.797 74.8711 115.235L74.659 115.636L75.1952 116.722L74.9719 116.975C74.7043 116.711 74.5225 116.482 74.1289 116.435L73.937 116.513Z"/><path d="M82.5322 114.068C81.8792 114.179 81.7898 114.159 81.1436 114.004C79.9831 113.043 79.544 111.823 79.2702 110.373C77.8423 102.813 81.84 94.1468 90.0041 92.8621C81.8084 97.8726 78.3258 104.845 82.5322 114.068Z"/><path d="M98.723 93.1477C110.441 95.2687 111.033 113.983 105.436 114.095C109.249 105.641 106.376 97.9688 98.723 93.1477Z"/><path d="M96.7857 126.542L95.5973 126.471C93.3575 124.933 95.1741 119.173 94.6453 116.645C94.5516 116.197 94.7188 115.423 94.8889 114.979C95.4581 114.401 96.4248 114.379 97.256 114.262C95.8874 115.672 96.4737 124.355 96.7857 126.542Z"/><path d="M90.4928 114.245C91.0129 114.298 91.8956 114.268 92.1804 114.807C93.5647 117.426 93.0416 121.16 92.9978 124.073C92.956 126.859 91.7219 126.728 89.5237 126.731C89.8226 126.663 90.6053 126.464 90.6931 126.148C91.5336 123.125 91.6169 117.025 90.4928 114.245Z"/><path d="M74.8711 115.235C78.2003 120.598 79.7734 120.945 82.7732 124.969C79.212 123.394 75.8616 119.879 73.937 116.513L74.1289 116.435C74.5225 116.482 74.7043 116.711 74.9719 116.975L75.1952 116.722L74.659 115.636L74.8711 115.235Z"/><path d="M172.811 86.4098C176.197 85.0509 180.247 85.4242 183.735 86.0896C185.444 86.7603 186.393 87.245 187.762 88.5304C189.819 90.4614 194.159 96.4899 189.435 97.7695L185.082 97.6922C182.082 96.943 182.754 94.9488 180.992 92.7898C180.619 92.3333 179.524 91.5873 179.003 91.2227L177.777 91.23C175.26 92.8992 174.331 94.0211 173.583 96.9847C174.337 100.051 174.505 100.814 177.083 102.826C179.145 103.505 180.916 103.623 183.074 103.783C186.008 104.798 187.49 105.658 189.407 108.22C191.354 110.785 192.032 113.715 191.6 116.891C191.175 119.967 189.538 122.746 187.054 124.609C185.977 125.429 184.382 126.221 183.067 126.532C179.535 126.818 177.325 126.791 173.809 126.366C169.838 125.451 167.013 122.681 165.398 119.04C164.489 116.992 164.74 115.461 166.873 114.639C168.277 114.514 169.84 114.509 171.263 114.476C172.946 114.538 173.336 115.079 174.053 116.594C174.824 118.768 175.263 119.472 177.31 120.808C178.266 121.107 178.624 121.169 179.621 120.877C186.639 119.6 185.804 109.61 179.574 109.412C177.46 108.944 175.373 108.745 173.257 108.18C169.544 107.428 167.33 104.779 165.705 101.59C163.564 94.9304 165.981 88.7371 172.811 86.4098Z"/><path d="M189.407 108.22C191.354 110.785 192.032 113.715 191.6 116.891C191.175 119.967 189.538 122.746 187.054 124.609C185.977 125.429 184.382 126.221 183.067 126.532C185.295 123.839 188.375 122.486 189.493 118.274C190.379 114.938 189.902 112.075 188.25 109.106C188.536 108.827 189.067 108.469 189.407 108.22Z"/><path d="M165.705 101.59C163.564 94.9304 165.981 88.7371 172.811 86.4098C171.172 87.4202 169.281 89.8192 168.237 91.4563C166.637 93.9627 166.43 97.3725 167.001 100.235L165.705 101.59Z"/><path d="M177.083 102.826C170.818 104.105 169.907 90.8096 177.777 91.23C175.26 92.8992 174.331 94.0211 173.583 96.9847C174.337 100.051 174.505 100.814 177.083 102.826Z"/><path d="M183.735 86.0896C185.444 86.7603 186.393 87.245 187.762 88.5304C189.819 90.4614 194.159 96.4899 189.435 97.7695C190.075 90.3597 186.722 90.4612 183.735 86.0896Z"/><path d="M173.809 126.366C169.838 125.451 167.013 122.681 165.398 119.04C164.489 116.992 164.74 115.461 166.873 114.639C166.887 118.513 167.533 120.663 170.286 123.579C171.222 124.57 172.58 125.791 173.809 126.366Z"/><path d="M167.001 100.235C167.995 103.462 170.471 106.352 173.257 108.18C169.544 107.428 167.33 104.779 165.705 101.59L167.001 100.235Z"/><path d="M171.263 114.476C172.946 114.538 173.336 115.079 174.053 116.594C174.824 118.768 175.263 119.472 177.31 120.808C174.839 121.385 173.717 119.808 172.671 117.775C172.177 116.686 171.707 115.586 171.263 114.476Z"/><path d="M179.003 91.2227C184.294 91.9668 183.135 94.0486 185.082 97.6922C182.082 96.943 182.754 94.9488 180.992 92.7898C180.619 92.3333 179.524 91.5873 179.003 91.2227Z"/><path d="M183.074 103.783C186.008 104.798 187.49 105.658 189.407 108.22C189.067 108.469 188.536 108.827 188.25 109.106C186.932 107.381 184.681 105.375 183.074 103.783Z"/><path d="M124.767 85.7378C128.678 85.3128 134.227 85.5175 138.248 85.5858C141.696 85.767 142.259 90.1718 138.706 90.8485C136.547 90.8094 134.177 90.7349 132.057 91.1333C131.789 92.8612 131.192 96.8467 132.071 98.332L132.789 98.7439L133.053 98.7894C134.089 98.9766 134.634 99.0469 135.255 99.923C135.702 100.544 135.88 101.318 135.75 102.071C135.462 103.658 134.716 104.055 133.265 104.419L132.314 104.521C131.153 106.081 131.061 119.945 132.532 121.221C134.511 121.325 136.65 121.479 138.619 121.466C141.761 121.781 142.004 126.285 138.539 126.702C134.231 126.714 129.073 126.868 124.862 126.541C124.587 126.536 124.097 126.527 123.876 126.481C123.661 126.437 123.152 126.21 123.129 125.992C122.671 121.769 122.556 88.236 123.114 86.3226C123.738 85.8085 123.969 85.829 124.767 85.7378Z"/><path d="M124.862 126.541C124.587 126.536 124.097 126.527 123.876 126.481C123.661 126.437 123.152 126.21 123.129 125.992C122.671 121.769 122.556 88.236 123.114 86.3226C123.738 85.8085 123.969 85.829 124.767 85.7378C124.234 92.1827 124.689 101.534 124.548 108.226C124.469 111.999 124.369 123.317 124.862 126.541Z"/><path d="M132.532 121.221C131.982 121.262 130.51 121.328 130.377 120.919C129.494 118.208 129.152 106.785 130.595 104.874C131.481 104.383 131.217 104.525 132.314 104.521C131.153 106.081 131.061 119.945 132.532 121.221Z"/><path d="M132.789 98.7439C132.418 98.7705 131.114 98.7701 130.865 98.571C128.999 97.0825 129.42 93.1815 130.442 91.5263C131.243 90.9679 130.96 91.1205 132.057 91.1333C131.789 92.8612 131.192 96.8467 132.071 98.332L132.789 98.7439Z"/><path d="M138.248 85.5858C141.696 85.767 142.259 90.1718 138.706 90.8485C139.107 88.2551 139.328 87.9203 138.248 85.5858Z"/><path d="M133.053 98.7894C134.089 98.9766 134.634 99.0469 135.255 99.923C135.702 100.544 135.88 101.318 135.75 102.071C135.462 103.658 134.716 104.055 133.265 104.419C133.836 101.623 134.559 102.253 133.053 98.7894Z"/><path d="M138.619 121.466C141.761 121.781 142.004 126.285 138.539 126.702C138.753 125.845 139.029 124.953 139.278 124.102C139.022 123.3 138.815 122.299 138.619 121.466Z"/><path d="M150.806 82.0229L153.563 81.6908C155.963 82.2405 157.093 83.9162 157.64 86.2487C158.718 89.3948 158.722 90.8464 154.939 90.9834L151.585 90.8131C149.643 90.5099 148.63 88.0696 148.089 86.2997C147.298 83.7098 148.157 82.4587 150.806 82.0229Z"/><path d="M151.585 90.8131C149.643 90.5099 148.63 88.0696 148.089 86.2997C147.298 83.7098 148.157 82.4587 150.806 82.0229C150.063 82.7027 149.777 83.6682 149.404 84.6098C150.109 86.4337 151.177 88.966 151.585 90.8131Z"/><path d="M153.563 81.6908C155.963 82.2405 157.093 83.9162 157.64 86.2487C156.912 86.8116 156.678 86.9397 156.399 87.8024C155.319 84.8826 155.059 84.4477 153.563 81.6908Z"/><path d="M156.399 87.8024C156.678 86.9397 156.912 86.8116 157.64 86.2487C158.718 89.3948 158.722 90.8464 154.939 90.9834C156.723 90.484 156.429 89.5543 156.399 87.8024Z"/><path d="M35.9093 134.831C37.2666 134.378 38.7627 134.703 39.8105 135.677C40.8584 136.652 41.2906 138.12 40.9376 139.507C40.5846 140.893 39.5027 141.977 38.1166 142.331C36.0764 142.853 33.9892 141.666 33.3946 139.646C32.8 137.626 33.9116 135.498 35.9093 134.831ZM37.603 141.34C39.106 141.072 40.1198 139.652 39.8854 138.144C39.6509 136.635 38.2543 135.59 36.7409 135.791C35.7316 135.925 34.8739 136.595 34.4992 137.542C34.1246 138.488 34.2916 139.564 34.9359 140.352C35.5802 141.14 36.6007 141.518 37.603 141.34Z"/><path d="M104.991 134.342C106.387 135.415 105.439 136.58 106.382 137.553C107.18 136.696 106.75 135.288 107.536 134.581L107.945 135.014C108.443 136.786 108.331 139.977 108.049 141.834C107.958 142.433 107.674 142.456 107.198 142.703C106.889 141.281 107.193 140.012 106.479 138.984L106.005 139.02C105.28 140.125 106.49 141.598 105.157 142.458L104.875 142.201C104.35 140.566 104.468 135.99 104.991 134.342Z"/><path d="M186.713 134.296L187.127 134.465C187.902 135.528 187.126 137.357 188.081 138.113C188.924 137.604 188.507 135.529 189.3 134.602C190.438 135.454 190.217 141.491 189.621 142.632L189.079 142.301C188.426 141.328 188.89 139.21 188.096 138.589C187.223 139.705 187.815 141.795 186.961 142.539L186.584 142.144C186.356 140.553 186.378 135.843 186.713 134.296Z"/><path d="M179.574 109.412C185.804 109.61 186.639 119.6 179.621 120.877C184.349 117.441 183.874 112.921 179.574 109.412Z"/><path d="M53.1145 134.682C53.9924 134.643 54.1518 134.633 55.0055 134.851C56.8141 136.178 56.577 140.512 55.4157 142.068L55.1518 141.863C54.9853 140.066 55.0085 138.112 54.994 136.295C54.7631 136.025 54.699 136.053 54.3435 135.912C53.2206 136.753 54.0901 140.563 53.4718 142.394L53.0836 142.296C52.3693 140.971 52.5865 136.134 53.1145 134.682Z"/><path d="M158.963 134.613C159.376 134.621 159.473 134.725 159.819 134.942L159.674 135.312C158.651 135.933 157.687 136.078 156.529 136.337C159.505 137.893 161.537 140.653 157.477 142.507C157.372 142.47 156.999 142.218 156.88 142.142C157.061 141.047 158.064 140.834 158.304 140.222C159.041 138.343 154.929 137.29 156.313 135.093C157.119 134.55 157.991 134.63 158.963 134.613Z"/><path d="M119.814 134.716C120.66 134.673 121.497 134.561 122.279 134.872C121.795 135.837 120.872 135.815 120.967 137.46C121.09 139.57 120.396 140.134 121.794 141.636L122.428 141.693L122.478 142.052C121.904 142.465 120.779 142.659 120.163 142.249C119.302 140.865 119.674 136.468 119.814 134.716Z"/><path d="M174.293 134.695C174.411 134.714 174.517 134.871 174.635 134.991C172.523 138.773 174.338 140.47 173.241 142.343L172.617 142.44C172.43 140.738 172.722 138.83 172.55 137.103C172.395 135.551 171.66 136.309 171.513 134.894C172.113 134.591 173.545 134.692 174.293 134.695Z"/><path d="M90.1125 134.554C91.0367 134.54 91.8844 134.473 92.7668 134.76C93.1583 135.539 92.2899 135.824 92.2477 136.618C92.1579 138.31 92.1741 140.243 92.167 141.927C91.9485 142.166 91.9413 142.106 91.5853 142.21C90.9241 141.41 91.071 137.685 90.7629 136.537C90.5217 135.639 90.3064 135.555 90.1125 134.554Z"/></svg>