<?xml version="1.0" encoding="utf-8" ?><svg xmlns="http://www.w3.org/2000/svg" xmlns:xlink="http://www.w3.org/1999/xlink" width="225" height="225" viewBox="0 0 225 225"><path transform="matrix(0.45 0 0 0.45 0.000244141 6.10352e-05)" d="M296.432 113.36C302.626 112.869 312.921 113.805 318.22 117.495C321.056 119.507 322.976 122.565 323.555 125.994C324.217 129.94 322.812 133.707 320.545 136.885C307.364 155.367 260.363 166.068 239.064 169.503C240.127 164.57 241.4 158.884 242.732 154.04C245.85 152.785 253.109 151.672 257.134 150.622C272.428 146.536 290.008 143.317 303.449 134.615C310.029 130.355 306.424 126.009 299.318 126.218C288.897 126.525 280.788 128.833 270.967 131.595C236.158 141.383 204.633 158.613 178.432 183.687C166.833 194.738 147.652 214.09 147.592 231.006C148.191 252.866 175.317 258.794 190.473 267.549C218.957 284.004 208.234 310.042 189.336 328.31C176.19 341.044 153.383 352.212 134.971 349.888C123.253 348.409 113.273 338.283 115.543 326.002C117.419 315.852 125.203 308.103 133.234 302.33C135.74 306.742 138.456 311.376 140.82 315.841C140.158 316.36 139.508 316.895 138.872 317.446C132.041 323.371 125.201 336.27 140.145 335.868C155.03 335.467 171.473 324.122 181.878 313.976C186.57 309.4 192.9 300.347 192.627 293.281C192.085 284.213 182.071 280.077 174.836 277.072C155.689 269.119 133.156 255.92 132.274 232.663C131.632 215.744 142.522 199.534 153.574 187.323C182.58 155.27 220.228 129.39 262.564 118.952C273.758 116.183 284.719 113.818 296.432 113.36Z"/><path transform="matrix(0.45 0 0 0.45 0.000244141 6.10352e-05)" d="M369.288 159.572C370.978 159.481 372.67 159.693 374.285 160.198C386.971 164.248 385.952 183.392 383.71 193.666C378.398 218.002 362.715 239.077 345.526 256.473C341.597 260.372 337.619 264.22 333.592 268.016C331.582 269.926 328.333 272.81 326.714 274.936C326.257 275.537 324.723 280.536 324.424 281.454C329.568 279.148 335.679 279.127 341.263 278.813C341.525 281.107 341.47 286.073 341.282 288.542C341.206 289.54 339.868 289.42 339.106 289.53C332.448 290.483 326.682 291.859 320.853 295.19C320.193 296.859 319.421 300.011 318.893 301.844L315.449 313.534C312.398 323.734 308.547 335.132 306.052 345.393C302.022 345.417 297.992 345.413 293.962 345.381C296.026 336.731 299.66 325.688 302.134 316.849C304.769 307.436 308.166 293.805 311.487 284.968C304.353 288.849 299.237 294.511 290.687 296.428C283.475 298.045 275.852 295.872 274.584 287.48C273.315 279.079 279.785 268.85 284.421 262.345C286.299 259.71 288.792 257.282 290.71 254.563L290.907 254.282C288.837 255.417 286.448 257.561 284.491 259.016C278.556 263.425 272.216 267.056 264.735 267.666C263.68 272.944 262.028 276.92 259.996 281.83C257.085 288.177 253.841 294.067 248.643 299.066C241.712 305.927 228.732 308.182 221.644 300.313C215.383 293.363 217.025 280.253 220.073 272.231C221.091 269.552 223.987 262.332 226.079 260.525C227.893 260.055 235.583 261.781 237.992 262.199C235.118 266.935 232.828 272.001 231.173 277.288C225.249 296.488 236.881 300.337 245.938 282.854C250.947 273.185 252.488 266.752 255.221 256.353C255.583 256.338 255.946 256.318 256.308 256.296C270.579 255.414 281.004 248.742 290.317 238.213C295.37 243.502 301.002 250.245 305.975 255.804C303.942 257.789 300.948 260.877 299.102 262.587C296.421 265.072 279.507 284.394 291.299 283.451C296.312 283.05 313.334 270.639 316.148 266.487C317.515 264.471 321.764 248.398 322.845 244.995C327.112 231.35 331.932 217.884 337.295 204.632C341.847 193.23 347.161 180.453 354.231 170.374C358.069 164.905 362.543 160.662 369.288 159.572ZM332.889 251.976C333.745 251.254 334.697 250.495 335.48 249.707C350.424 233.896 364.419 217.677 370.609 196.259C372.364 190.189 373.845 183.694 372.855 177.359C372.559 175.487 372.299 172.118 370.254 171.415C358.266 177.884 344.376 219.9 339.465 232.924C337.371 238.478 335.561 246.123 332.889 251.976Z"/><path transform="matrix(0.45 0 0 0.45 0.000244141 6.10352e-05)" d="M283.082 354.514C288.625 354.566 294.574 354.181 300.076 354.575C302.453 354.882 305.198 356.154 306.548 358.178C309.515 362.627 308.131 367.078 304.11 370.104C308.933 372.709 310.988 376.823 308.494 381.98C304.402 387.498 299.144 386.49 293.084 386.558C289.768 386.594 286.464 386.555 283.146 386.619C283.371 381.374 283.24 375.508 283.244 370.224C283.247 365.217 283.363 359.465 283.082 354.514ZM300.83 379.882C301.6 379.262 302.189 378.901 302.301 377.855C302.79 373.284 299.056 373.276 295.659 373.254C293.899 373.243 291.305 373.395 289.649 373.185C289.731 374.622 289.738 379.23 289.984 380.13C291.726 380.665 298.926 380.623 300.83 379.882ZM289.738 367.981C292.928 367.525 298.074 368.35 300.295 366.856C300.942 365.834 301.233 365.394 301.706 364.298C301.253 362.96 300.97 361.722 299.594 361.125C296.523 359.792 293.049 361.044 289.626 360.429C289.939 362.935 289.977 365.467 289.738 367.981Z"/><path transform="matrix(0.45 0 0 0.45 0.000244141 6.10352e-05)" d="M284.905 309.607C287.295 309.424 289.629 309.588 292.195 309.351C291.591 313.438 290.66 316.955 290.273 321.201C285.444 321.488 280.445 321.181 275.309 321.634C255.646 323.368 234.879 326.811 216.238 333.264C211.361 335 211.425 335.171 209.186 330.512C211.951 328.949 216.881 326.764 219.864 325.454C240.458 316.43 262.468 311.067 284.905 309.607Z"/><path transform="matrix(0.45 0 0 0.45 0.000244141 6.10352e-05)" d="M247.491 354.528L254.627 354.488C254.397 358.426 254.545 362.126 254.445 366.319C254.312 371.938 253.57 380.68 261.801 380.471C263.622 380.424 264.316 379.704 265.696 378.589C268.168 376.592 267.721 373.603 267.807 370.771C267.828 365.395 267.705 359.974 267.849 354.566L275.022 354.528C274.855 356.876 274.798 358.929 274.763 361.271C274.701 371.197 277.195 386.263 261.629 386.777C249.621 387.173 246.554 376.725 247.613 366.678C247.919 363.784 247.559 357.78 247.491 354.528Z"/><path transform="matrix(0.45 0 0 0.45 0.000244141 6.10352e-05)" d="M193.113 354.324C200.911 353.49 206.779 356.814 210.103 363.92C207.863 364.515 206 365.01 203.804 365.79C199.788 360.807 194.578 358.057 189.063 363.08C187.075 364.909 185.905 367.459 185.814 370.159C185.549 378.665 195.243 384.116 202.002 377.419C202.621 376.658 202.637 376.599 203.408 376.029C205.512 375.583 208.159 376.734 210.256 377.424C209.967 377.99 209.65 378.542 209.308 379.077C201.209 391.52 182.407 388.272 179.47 373.703C177.584 364.352 183.641 355.801 193.113 354.324Z"/><path transform="matrix(0.45 0 0 0.45 0.000244141 6.10352e-05)" d="M218.086 354.513L224.981 354.477C224.657 363.152 225.054 371.749 224.789 380.259L240.073 380.258L239.993 386.211C239.97 386.238 239.952 386.27 239.924 386.292C239.2 386.863 220.664 386.536 218.111 386.585C218.409 383.458 218.273 376.469 218.259 373.073C218.236 367.339 218.49 360.111 218.086 354.513Z"/></svg>