<?xml version="1.0" encoding="utf-8" ?><svg xmlns="http://www.w3.org/2000/svg" xmlns:xlink="http://www.w3.org/1999/xlink" width="225" height="225" viewBox="0 0 225 225"><path transform="scale(0.312935 0.312935)" d="M344.35 364.705C347.416 364.995 353.565 364.843 356.732 364.837C365.002 364.771 373.273 364.786 381.543 364.881C382.618 374.193 383.18 382.992 384.031 392.251L388.49 441.709C389.487 453.849 390.554 470.112 392.223 481.963C394.451 467.929 395.245 448.077 396.622 433.553L399.682 400.02C400.712 389.635 402.242 375.462 402.438 365.17L438.115 365.085L444.397 437.094L446.647 464.556C447.134 470.314 447.517 476.916 448.475 482.583C449.052 479.191 449.188 475.285 449.508 471.81C452.769 436.473 454.68 400.435 458.315 365.191C470.824 365.108 483.332 365.122 495.84 365.232C495.018 369.831 495.141 374.029 494.566 378.447C493.346 387.83 492.847 397.517 491.601 406.814L480.436 508.359C478.668 524.136 476.412 539.688 475.354 555.511C464.1 554.92 453.213 555.015 441.954 555.108C437.868 555.141 434.027 555.51 429.931 555.402C428.764 549.472 428.156 537.321 427.328 530.868C424.628 509.826 423.42 487.88 420.351 466.909C417.261 489.343 415.748 510.771 413.374 533.197C412.737 539.217 412.153 550.105 410.905 555.418C402.974 556.023 396.456 555.137 388.832 555.205C380.469 555.279 373.142 555.767 364.623 555.415C364.422 552.325 363.844 549.062 363.572 545.914C362.329 530.918 360.814 515.946 359.029 501.004C358.083 492.446 357.06 483.522 356.332 474.962C353.209 438.231 347.296 401.42 344.35 364.705Z"/><path transform="scale(0.312935 0.312935)" d="M540.196 363.497C553.033 363.002 565.566 363.517 576.442 371.151C594.767 384.012 593.796 403.389 593.829 423.126L593.837 460.08L593.861 491.226C593.921 511.996 594.512 534.865 576.014 548.769C569.119 553.951 562.949 555.475 554.695 556.865C542.253 557.522 530.842 556.965 520.265 549.743C500.313 536.118 500.259 514.894 500.236 493.147L500.245 461.135L500.276 425.906C500.296 410.033 499.095 393.289 509.047 379.803C517.232 368.711 527.248 365.573 540.196 363.497ZM549.44 522.141C551.868 521.005 553.524 519.547 554.261 516.893C556.908 507.373 556.099 495.495 556.096 485.677C556.157 471.903 556.06 458.129 555.805 444.358C555.665 432.021 556.983 419.143 555.276 406.887C554.472 401.108 552.139 397.847 545.888 398.533C540.513 399.568 538.342 404.426 538.075 409.447C537.739 415.772 537.857 422.138 537.86 428.475L537.881 462.297L537.896 492.791C537.895 496.538 537.926 500.323 537.904 504.066C537.859 511.827 538.269 524.071 549.44 522.141Z"/><path transform="scale(0.312935 0.312935)" d="M243.429 166.045C252.233 166.396 261.973 166.242 270.828 166.249C283.111 166.336 295.395 166.264 307.676 166.032C309.892 181.845 310.328 198.033 312.278 213.871C312.686 217.184 312.895 220.599 313.234 223.932C317.663 268.041 321.852 312.174 325.8 356.328C314.819 355.708 300.727 356.006 289.549 356.002C289.431 351.937 289.044 348.555 288.595 344.521C288.311 338.025 287.882 331.536 287.308 325.059C280.196 324.679 271.494 325.034 264.131 324.891C263.481 334.846 262.627 346.142 262.251 355.991L224.624 355.909C225.806 350.907 226.31 341.914 226.887 336.567C228.591 320.273 230.148 303.963 231.558 287.641L243.429 166.045ZM266.955 294.809C270.815 295.014 272.034 294.928 275.857 294.568C278.561 294.576 281.597 294.512 284.255 294.776C283.465 288.683 283.325 282.265 282.783 276.128L278.576 229.119C277.893 220.935 277.126 206.784 275.376 198.233C275.153 197.985 274.93 197.738 274.707 197.49C273.351 206.28 272.865 218.381 272.201 227.446L268.996 267.575C268.286 276.896 267.977 285.329 266.955 294.809Z"/><path transform="scale(0.312935 0.312935)" d="M167.046 164.473C169.657 164.423 172.316 164.442 174.911 164.407C214.412 163.866 219.786 198.689 218.716 230.557C215.509 230.376 209.673 230.602 206.249 230.619C198.248 230.664 190.246 230.662 182.244 230.611C181.837 225.314 182.052 219.793 182.089 214.249C182.126 208.653 181.661 199.607 174.094 199.058C171.626 198.879 168.098 200.07 166.267 201.777C163.106 204.721 162.546 208.953 162.599 213.055C162.579 232.939 162.607 252.852 162.596 272.733L162.591 294.998C162.592 301.891 161.664 314.879 166.509 320.665C168.463 323 172.609 323.077 175.535 323.015C183.216 317.368 182.101 310.14 182.317 301.672C182.504 294.288 181.899 286.217 182.445 278.92L182.483 278.461C178.924 277.988 175.917 278.029 172.349 278.007C172.167 267.105 172.378 256.148 172.241 245.232C183.91 245.696 198.325 245.275 210.206 245.258C213.024 245.221 215.802 245.324 218.617 245.411C218.866 264.875 218.718 284.597 218.736 304.083C218.84 321.375 218.832 338.668 218.713 355.96C211.408 356.064 203.884 355.972 196.562 355.965C197.062 350.56 197.004 345.378 197.018 339.96C196.142 341.591 195.125 343.143 193.979 344.598C189.123 350.702 181.39 356.328 173.478 356.81C162.521 357.434 150.582 357.761 141.7 350.187C124.495 335.515 125.259 311.631 125.25 291.276L125.244 253.62L125.252 222.479C125.255 216.253 124.993 209.563 125.774 203.477C127.9 186.916 136.948 171.553 153.662 166.552C158.32 165.159 162.173 164.881 167.046 164.473Z"/><path transform="scale(0.312935 0.312935)" d="M416.533 165.537C439.396 165.236 462.848 165.492 485.763 165.524C486.295 176.209 485.882 191.731 485.827 202.637C473.743 202.669 460.687 202.992 448.716 202.649C449.216 214.28 449.006 227.554 449.071 239.326C460.731 238.992 472.959 239.425 484.738 239.189C484.815 250.86 485.114 263.952 484.654 275.496C477.554 275.566 470.454 275.593 463.355 275.577C458.758 275.578 453.29 275.713 448.799 275.273C449.193 283.996 448.672 294.363 448.903 303.26C448.983 306.345 448.974 315.887 448.653 318.614L457.21 318.548L488.623 318.559C489.02 330.403 488.678 344.014 488.634 356.003L410.186 355.976C410.026 348.024 410.034 339.904 410.114 331.949C410.666 276.539 409.583 220.996 410.128 165.602C412.015 165.677 414.589 165.568 416.533 165.537Z"/><path transform="scale(0.312935 0.312935)" d="M400.038 165.907C401.68 165.719 402.161 165.6 403.762 165.821C404.224 166.686 404.051 198.832 404.054 202.501C397.648 202.566 387.304 202.907 381.305 202.32C381.514 221.82 381.557 241.321 381.435 260.822L381.461 355.96L343.257 355.962C343.222 350.061 343.219 344.16 343.25 338.26L343.317 202.561C335.724 202.511 328.131 202.5 320.537 202.528C320.209 190.546 320.407 178.037 320.527 166.052C335.754 166.694 354.204 166.225 369.701 166.224L388.818 166.208C391.871 166.199 397.129 166.279 400.038 165.907Z"/><path transform="scale(0.312935 0.312935)" d="M310.242 364.92C318.166 365.335 330.344 364.985 338.46 364.88C338.967 375.431 338.852 391.538 338.578 402.213C332.281 401.777 322.237 402.071 315.696 402.058C316.127 407.173 315.826 415.639 315.814 420.997L315.805 454.498C315.95 488.022 315.916 521.547 315.703 555.071C305.898 554.79 295.518 554.962 285.687 554.983C283.081 554.997 280.475 555.026 277.87 555.071C278.251 549.699 278.091 542.762 278.094 537.312L278.096 507.876L277.737 402.048C270.995 401.508 262.56 402.135 255.334 401.75C255.094 389.706 255.269 377.253 255.292 365.179L289.834 365.172C296.264 365.163 303.879 365.306 310.242 364.92Z"/></svg>