<?xml version="1.0" encoding="utf-8" ?><svg xmlns="http://www.w3.org/2000/svg" xmlns:xlink="http://www.w3.org/1999/xlink" width="261" height="225" viewBox="0 0 261 225"><clipPath id="cl_3"><rect y="6.1035156e-05" width="261" height="225.00002"/></clipPath><g clip-path="url(#cl_3)"><path transform="matrix(0.220439 0 0 0.219727 0 6.10352e-05)" d="M367.27 465.192C373.545 471.259 367.203 475.857 366.64 481.259C364.414 502.593 358.462 522.538 353.218 543.241C352.795 544.911 348.994 543.573 347.202 545.35L347.499 546.067C349.049 545.858 350.127 545.593 351.667 545.899C352.559 549.182 348.578 571.947 347.445 575.664L346.71 575.845C345.365 574.777 344.916 574.26 343.236 573.811C342.003 574.89 342.415 574.235 342.016 575.877C343.184 577.463 343.477 577.506 345.276 578.508L345.797 578.792C346.347 582.372 343.857 591.918 340.378 593.894C340.339 595.396 340.503 595.023 339.995 596.344C338.261 593.667 337.731 591.683 339.605 588.949L340.673 589.181C340.325 590.44 339.941 591.173 340.45 592.342C342.374 589.272 343.835 583.941 343.243 580.317C341.633 578.511 340.83 577.913 340.12 575.681C340.526 571.483 342.611 570.943 346.176 571.383C347.219 570.208 346.809 571.07 346.986 569.925C348.133 562.537 344.511 568.409 340.674 563.856C339.958 561.671 339.954 561.794 340.252 559.524C343.562 560.869 342.897 558.413 345.018 559.834C345.807 560.362 345.335 562.497 347.612 563.306C347.976 558.489 350.861 552.406 349.965 547.614L349.206 547.391L348.618 548.581L347.606 548.71C345.883 547.583 345.983 547.628 344.962 545.808C345.088 543.81 344.772 544.722 346.129 543.052C347.873 542.554 348.629 542.53 350.394 542.375C352.235 540.864 351.644 541.586 352.483 539.238C352.135 537.067 350.228 535.885 348.524 533.837C347.156 526.168 359.947 528.912 355.942 520.134C351.262 518.252 350.889 513.971 354.252 510.926C356.538 511.17 355.911 511.169 358.046 512.648L358.859 512.316C360.901 508.325 363.532 490.48 364.334 485.303L363.53 484.381C363.28 485.398 363.091 485.885 362.712 486.866C361.166 487.965 361.996 487.778 360.151 487.481C358.852 485.393 359.248 482.902 359.469 480.323C361.504 479.253 371.032 475.177 367.735 471.12L366.758 471.958L368.21 471.703L368.085 471.122C365.865 471.711 366.701 473.418 363.67 473.87C357.607 467.818 366.596 462.413 367.575 458.789C365.045 455.69 361.966 452.828 364.819 448.906C366.621 448.955 368.326 449.104 369.535 447.837C370.811 446.499 372.955 442.078 372.163 440.388C370.446 436.719 365.92 431.779 370.921 427.814C372.679 427.642 373.524 427.727 374.985 426.728C375.542 424.822 375.106 424.094 374.519 422.19C371.414 420.277 369.318 419.099 369.111 414.927C368.976 412.197 368.512 410.102 370.389 407.821C371.362 407.7 372.215 407.626 373.194 407.555L373.986 406.302L374.56 406.964C374.523 408.556 374.251 409.992 375.088 411.244L375.777 411.105C376.371 408.12 376.408 403.969 375.391 401.062C374.967 402.311 374.933 402.926 373.931 403.736C371.263 403.765 369.291 404.481 368.193 401.855C368.777 398.627 370.697 397.187 373.272 395.476C372.453 385.353 354.196 387.152 352.885 391.267L354.143 391.671C354.904 393.135 354.707 393.74 354.587 395.381C349.951 397.889 349.213 392.164 346.573 391.421C342.361 392.098 341.051 394.096 340.579 398.183C337.346 399.396 335.166 394.775 330.449 399.014C331.419 399.717 331.969 399.79 333.136 400.027C333.668 401.846 333.873 401.963 333.321 403.799C331.105 405.564 328.659 405.133 325.322 405.4L325.043 402.819C323.191 403.157 323.381 404.317 322.036 405.562C321.976 405.618 319.136 406.02 318.445 406.335C319.536 408.245 322.483 405.809 324.866 407.913C326.998 414.783 316.943 413.613 315.255 418.294C315.006 418.984 304.697 419.171 302.267 420.34C300.534 421.173 295.211 417.048 290.768 418.883C286.378 423.351 288.292 462.11 284.9 470.86C284.536 471.8 284.822 471.784 285.263 472.701C288.037 473.55 288.878 473.272 288.723 476.171C287.431 478.084 286.207 477.997 283.67 479.23C284.523 486.043 282.383 483.751 278.099 489.921C277.844 497.448 275.58 502.52 273.337 509.624C270.981 517.086 268.417 519.198 277.233 522.191L277.547 523.182C275.708 524.917 273.397 526.069 270.904 526.495C269.978 526.044 270.002 526.004 269.014 525.742C267.573 528.252 264.066 539.006 263.846 541.742L264.627 542.086C267.006 540.721 267.612 539.716 269.842 541.351C271.595 546.715 266.667 549.513 262.691 550.463C259.882 551.134 261.394 560.525 260.529 563.564C258.052 564.711 258.155 564.583 257.67 567.081C259.39 569.684 261.028 572.193 259.166 575.164L258.416 575.108C257.821 574.297 257.534 573.904 256.842 573.179L256.113 573.784C255.506 576.016 255.379 575.01 256.22 576.926C255.932 580.322 252.122 584.656 250.611 587.6C252.008 589.376 252.27 587.855 255.177 589.102C255.693 590.818 255.735 590.002 255.1 591.634L253.933 591.981C252.912 591.495 252.048 591.012 251.142 590.335C250.121 592.066 249.603 595.663 248.958 597.863C247.731 602.049 244 608.142 246.831 612.044C249.255 612.832 249.803 612.862 251.715 614.429C253.411 617.617 252.292 619.872 251.329 623.423L250.517 623.758C247.832 622.595 248.404 618.867 244.91 616.877L243.761 617.383C239.455 623.604 242.377 628.255 241.13 635.181C239.963 641.665 238.769 648.616 237.816 655.101C238.764 655.553 238.363 655.195 238.895 656.299C238.154 658.865 235.959 660.788 235.75 661.495C234.225 664.933 230.781 687.665 233.633 689.59C245.051 697.301 237.143 697.379 238.363 701.841C240.358 703.406 239.278 703.118 241.668 702.897C242.299 703.971 242.764 704.573 243.503 705.564C247.727 705.356 254.353 702.091 258.733 701.363C260.479 701.073 262.429 703.788 264.85 703.109C265.869 701.367 265.127 700.249 264.59 697.801C266.816 695.233 272.371 694.653 273.21 691.116C273.785 688.692 279.918 691.394 280.393 686.805C279.345 685.819 278.335 685.394 277.065 684.73L277.387 683.824C280.353 682.942 279.34 684.813 281.75 684.129C287.178 678.383 285.076 679.394 286.714 671.881C288.216 671.507 288.237 671.584 289.793 671.496C290.815 669.973 290.025 668.415 289.807 665.892C289.361 660.741 293.491 664.102 294.326 661.691C295.635 657.916 302.976 643.79 302.801 640.749C301.3 639.567 300.569 640.515 297.641 640.252C296.936 638.823 297.18 639.23 297.667 637.231L298.648 637.664C311.348 634.004 302.692 627.288 309.296 618.829C310.181 617.696 311.063 617.483 312.478 617.516C321.58 617.727 314.189 631.5 319.182 635.597C320.225 636.452 320.488 636.918 320.611 638.152C317.174 638.345 314.353 638.064 313.712 641.956C312.346 650.259 308.651 658.455 306.753 666.654C305.423 672.399 300.645 674.379 299.334 679.815C299.729 681.601 300.06 682.415 299.689 684.222C291.486 688.261 292.571 693.168 287.596 697.724C274.281 709.914 284.192 704.883 285.141 713.18C284.33 715.032 283.3 715.569 281.398 715.314C279.879 713.697 280.67 712.457 279.447 711.018L278.939 711.615C278.558 715.576 280.696 715.255 278.604 718.804C276.601 719.031 272.156 715.112 270.034 713.563L269.305 713.969C269.105 715.534 269.043 716.052 268.616 717.618C266.009 718.867 264.301 717.248 260.879 718.162C259.457 719.838 259.9 719.307 259.574 721.856C258.117 722.31 255.146 721.899 253.187 722.075C251.743 723.255 251.208 723.885 249.387 724.357L247.894 723.233L247.066 723.539C247.878 724.926 248.22 725.611 248.882 727.081C247.556 731.121 241.684 729.104 238.205 728.546L237.306 729.217C238.702 729.764 239.472 729.942 240.571 730.985L239.839 731.845C237.573 732.803 235.758 732.038 232.9 731.873L232.235 733.512C224.314 733.983 228.814 733.162 226.426 730.276C223.585 733.787 222.636 735.763 217.858 734.35C215.705 732.619 215.996 731.095 214.641 728.736L213.392 728.481C212.687 731.449 212.897 733.392 209.75 734.244C207.532 733.57 208.348 734.2 207.077 732.489C207.063 730.296 207.294 729.304 206.192 727.53C203.475 725.442 195.726 724.797 191.855 722.946C187.401 720.816 183.674 718.217 179.335 716.051C177.601 715.186 176.644 716.955 173.928 716.736C172.487 715.046 171.663 714.754 171.625 713.045C172.689 712.684 173.743 712.448 174.848 712.252L174.591 711.424C174.295 711.411 171.762 711.303 171.759 711.3C168.422 708.903 159.55 692.28 154.92 695.364C154.105 697.688 154.594 699.504 154.9 701.994C152.997 702.973 152.217 704.016 150.303 704.155C147.273 702.039 147.948 694.486 149.596 691.627C152.159 691.776 154.385 691.998 156.947 691.729C156.475 689.261 154.964 686.447 153.776 684.171C150.336 677.58 148.255 671.497 148.188 663.856C148.087 652.413 147.651 638.905 148.826 627.574C149.519 620.892 152.692 611.32 153.762 604.552C154.002 603.033 152.077 599.119 151.363 597.559C152.259 594.674 155.162 591.858 156.185 589.34C158.26 584.23 159.209 575.351 161.521 569.794C161.399 569.394 161.276 568.993 161.154 568.593C159.736 567.981 158.698 567.748 157.889 566.473C158.372 561.865 160.179 565.958 163.144 563.301C163.867 555.68 167.458 549.197 166.62 541.842C165.502 540.153 165.276 539.938 164.741 538.031C165.552 535.212 167.935 534.748 168.223 533.935C170.141 528.524 180.736 494.442 180.681 490.836C176.602 488.688 175.722 485.318 178.956 481.741C181.218 481.852 180.171 482.878 182.92 484.255C187.216 479.861 182.05 473.005 179.862 469.051C181.556 466.094 181.211 469.428 184.611 465.333C190.495 458.246 191.527 446.447 190.661 437.577C184.012 431.709 192.732 432.753 193.4 429.019L192.27 428.877C191.17 430.065 190.989 430.429 189.54 431.175C186.933 429.611 187.492 426.477 188.468 424.039C190.248 422.487 189.224 422.943 191.714 422.781C192.295 423.517 192.871 424.257 193.443 424.999L194.377 424.563C196.682 419.36 199.063 402.582 196.024 397.18C193.411 396.308 191.479 395.855 190.116 393.573C190.481 391.758 193.743 388.98 195.241 387.485C192.135 381.941 185.695 390.542 180.489 388.195L180.093 386.991C180.613 385.518 181.043 384.68 180.971 383.109L179.966 382.859C175.995 384.586 175.146 384.573 172.239 381.112C169.68 378.064 168.647 379.151 165.183 380.118C163.141 379.149 162.276 378.24 160.425 379.627L160.71 380.204L160.345 380.989L160.632 381.758C163.115 382.847 165.935 381.368 168.888 380.357L169.981 381.147C170.794 384.002 170.015 385.578 167.344 386.546C165.312 386.122 165.07 385.103 163.351 383.781L163.589 385.255L162.791 386.16C158.168 387.357 158.248 384.847 155.102 383.983C151.045 383.394 147.323 388.232 144.531 390.461C141.751 392.681 138.31 393.431 137.802 396.865L138.901 396.809C140.43 395.246 147.909 389.54 149.772 389.512C151.293 391.48 151.214 390.788 151.353 392.901C150.452 394.338 148.59 395.295 147.043 395.905C143.793 397.185 143.473 399.224 141.342 402.401C139.6 403.028 140.438 403.026 138.745 402.516C138.002 401.329 137.799 400.733 136.628 399.994C135.812 400.525 127.627 407.07 127.548 407.245L128.062 407.986L129.395 408.092L130.397 406.585C133.037 405.751 136.578 404.323 139.042 405.139C139.815 406.825 139.56 410.635 138.896 412.289C136.396 412.919 125.97 413.488 124.337 411.954C123.881 407.064 124.216 408.507 120.668 406.545C115.221 403.534 119.915 396.674 122.551 393.268C125.475 389.489 118.373 388.051 117.143 383.325C117.736 381.811 117.233 382.433 118.959 381.634C127.276 382.888 125.753 378.36 129.213 378.07C138.706 377.274 139.438 380.236 145.291 370.689C146.096 369.376 149.605 370.691 151.695 370.821L152.386 369.362C155.941 369.584 156.873 369.943 159.501 367.551C164.51 362.993 174.865 363.504 181.141 362.648C186.499 361.918 185.499 355.887 187.255 353.149C190.221 352.892 195.476 352.098 197.926 353.579C197.965 355.2 196.648 356.368 195.496 357.946C201.168 356.087 200.648 357.824 206.032 358.512L207.409 357.071C210.617 356.36 216.168 357.434 219.712 357.241C224.961 356.956 224.226 355.867 227.653 353.128C229.7 352.711 229.86 352.639 231.896 352.89C231.055 353.725 231.206 353.253 231.195 354.202C236.034 355.467 239.942 353.573 241.967 358.369C243.614 362.271 249.788 361.733 253.158 363.734C257.751 366.459 261.891 370.341 267.126 372.031C273.37 379.938 273.197 373.257 279.477 372.009C282.768 374.751 278.537 378.842 274.439 379.24L274.446 380.39C275.831 382.684 280.259 390.75 282.025 391.891C284.938 392.136 286.301 392.094 288.011 394.617C288.154 398.564 284.284 399.211 286.426 402.701C291.713 405.3 288.21 402.55 292.756 401.064C298.387 402.885 298.099 398.598 302.128 395.087C303.853 395.042 303.222 394.948 304.9 396.523C305.177 397.483 305.486 398.413 305.863 399.339C304.932 402.673 291.48 407.553 292.943 414.724L294.305 415.275C296.723 414.927 295.776 415.449 297.386 413.952C299.852 404.301 307.079 401.818 313.023 394.731C313.459 394.211 313.951 390.711 314.573 389.39L316.373 389.207C317.214 390.569 317.636 391.241 318.674 392.515L319.714 392.127C319.831 387.859 323.227 390.474 325.689 387.32C325.216 385.945 325.054 385.872 325.209 384.462C328.235 382.81 332.62 385.23 334.669 381.435C337.013 377.095 340.866 380.162 344.8 379.139L344.686 377.947L343.307 377.517C341.882 376.039 342.371 376.915 342.045 374.674C343.016 372.447 342.272 373.269 344.273 372.048C349.56 371.967 347.208 374.778 351.292 377.521C354.283 377.933 355.563 375.208 358.766 374.78C363.119 374.199 366.711 374.412 371.053 373.4C376.346 368.467 377.149 370.592 383.577 371.46C385.385 371.628 389.875 369.365 391.236 369.39C404.289 369.63 415.308 373.668 428.015 375.787C428.644 375.892 429.162 377.907 431.58 378.262C432.129 376.97 432.067 376.946 433.004 375.929L434.403 376.121L434.632 379.169L435.316 379.584C439.143 378.554 438.461 378.508 441.032 381.229L441.888 381.231L442.175 378.744L443.508 378.402C447.063 379.03 456.608 386.843 458.705 389.723C458.894 391.233 459.123 390.631 458.339 391.675L455.372 390.192L454.359 390.596L454.264 391.427C455.169 391.977 456.079 392.518 456.993 393.052L454.877 394.16C454.59 396.262 456.023 398.24 456.271 401.253L455.397 401.358C453.042 399.133 453.353 395.43 453.074 391.959C449.475 390.938 451.688 387.149 448.432 385.193L446.252 387.396C444.262 387.615 445.019 387.678 442.989 386.383C442.639 385.41 442.564 384.677 442.502 383.647C437.31 380.347 414.946 374.977 408.465 373.105C404.422 371.938 396.614 372.693 391.842 370.731C390.149 370.035 385.277 372.289 382.051 372.597C367.619 373.976 352.718 379.599 337.826 381.121C338.137 381.089 332.871 386.616 330.522 387.449C327.725 385.626 330.686 386.834 328.627 384.664L327.817 385.273C328.345 390.564 327.974 387.189 326.463 389.734C329.679 390.152 343.965 379.063 349.984 381.298C350.64 381.542 351.991 381.582 352.722 381.628L347.462 383.719C345.72 384.289 343.44 384.953 341.826 385.727L334.443 388.682C331.788 390.361 330.569 391.262 327.514 392.241C326.701 391.763 325.334 390.748 324.432 390.995C314.609 393.679 302.519 405.96 299.286 415.345L297.363 416.251C298.601 419.105 307.965 419.246 308.85 414.833L307.41 413.676C310.082 406.422 314.882 398.438 322.013 394.839C321.031 396.204 320.585 396.867 319.759 398.321L320.086 399.232L321.347 399.389C318.484 401.636 312.647 404.297 312.786 408.028C313.537 408.548 316.223 409.644 317.08 409.702L317.017 410.871L315.975 411.398C314.028 410.618 313.745 410.494 311.694 410.195L310.833 410.85C310.5 414.196 310.805 413.52 312.135 416.559L313.074 416.787C316.489 412.767 318.795 413.158 322.493 409.86L322.293 409.229C319.792 408.902 319.488 408.944 317.08 409.702C316.699 408.375 316.759 408.407 316.629 407.012C318.196 404.317 331.551 394.981 335.239 395.277C339.687 395.634 338.953 392.339 340.399 391.691C350.496 387.161 371.028 379.98 375.625 395.3C376.011 396.587 375.588 396.68 374.843 397.676C372.546 398.032 372.517 397.653 371.068 398.929C370.977 400.317 370.897 400.849 371.061 402.244C374.077 401.131 374.239 401.013 374.843 397.676L375.49 398.049L376.009 397.419C381.575 402.285 373.294 445.377 371.324 453.056C370.787 453.289 370.251 453.522 369.715 453.755L369.403 455.195L368.281 455.24C368.026 453.997 367.59 451.272 367.061 450.264L366.082 450.844C365.609 453.277 366.201 454.558 367.999 456.293C369.312 456.293 368.908 456.4 370.017 455.87C371.374 458.816 368.564 459.718 370.604 465.074C369.342 465.28 369.433 465.28 368.206 464.911L367.27 465.192L367.748 464.515L367.144 464.251C364.335 465.502 363.866 466.592 363.382 469.573C363.919 470.071 364.478 470.64 364.998 471.152C366.875 469.886 365.327 467.661 367.27 465.192ZM120.93 397.74C120.876 400.471 120.541 402.378 121.765 404.762C124.334 406.639 128.082 403.072 131.334 401.964C133.365 399.275 136.675 393.745 139.176 392.037C145.497 387.718 148.6 382.638 156.51 382.008C158.332 380.776 158.34 377.945 159.377 377.692C164.512 376.441 168.501 376.7 173.616 374.653C176.496 373.499 190.187 372.866 191.716 376.561C190.368 379.029 190 379.237 189.082 381.924C186.442 383.858 184.99 383.529 183.012 385.699L182.977 386.835C187.057 386.635 189.702 381.046 192.663 382.583C194.365 386.648 203.937 388.183 198.954 399.939C198.763 400.39 199.792 406.718 199.384 407.817C198.018 418.941 196.575 429.715 192.363 440.181C192.079 444.02 193.361 447.859 192.535 451.677C191.185 457.92 188.338 463.789 186.874 469.911C185.745 474.635 188.25 483.688 183.371 487.104C182.091 486.918 182.623 487.189 181.826 486.133C181.81 488.725 182.933 487.558 182.671 490.378C182.272 494.674 179.81 500.49 179.638 504.619C179.41 510.107 172.757 522.619 172.506 526.416C171.987 534.267 175.742 531.658 167.341 537.838L167.636 538.587L169.214 538.407C170.362 540.017 170.086 539.999 169.58 542.558C167.03 555.453 163.683 569.232 159.793 581.799C159.111 584.001 160.096 586.07 159.479 587.687C158.282 590.826 154.761 594.835 154.011 597.941C154.981 598.612 155.032 598.595 155.71 599.593C155.711 609.697 151.422 619.546 150.741 629.218C149.322 649.389 147.037 674.801 160.052 691.674C159.362 693.086 159.826 692.443 158.231 693.335C158.786 693.705 159.336 694.082 159.882 694.466C164.814 697.864 164.805 700.152 168.442 704.253C176.054 712.651 185.265 717.946 195.767 721.961C196.811 722.36 204.67 724.856 204.634 724.832C210.936 729.049 230.036 723.87 234.353 727.932L234.348 729.882L235.488 730.226C236.746 728.447 234.515 728.296 236.198 726.206C240.471 726.018 242.295 728.864 245.481 726.487C245.702 724.908 245.372 724.125 244.979 722.595C245.826 721.014 245.219 721.641 247.031 720.836L249.428 722.037C253.795 720.444 255.896 718.715 259.859 716.511C261.053 715.846 265.938 716.567 267.333 715.113C267.383 712.902 266.984 712.441 268.052 711.066C271.017 710.99 273.512 714.825 276.36 714.843L277.689 713.427L277.521 712.335C275.225 711.051 272.825 710.713 271.937 709.308C272.787 707.11 274.269 705.683 276.749 706.729L276.798 710.203L277.996 710.486C279.003 709.091 278.38 709.56 279.81 708.88C278.772 706.051 277.91 705.747 278.287 703.204C280.041 701.364 284.047 699.632 284.748 698.555C291.454 688.248 300.169 676.512 304.922 665.204C309.123 655.208 308.927 645.728 315.256 636.038L315.657 635.421L314.082 633.759C314.475 632.655 314.495 632.695 315.223 631.762C315.135 630.132 315.151 629.489 314.724 627.906C313.882 624.787 316.309 624.108 314.522 620.982C312.348 619.923 313.442 620.041 311.133 620.545C309.774 621.606 308.654 622.843 308.663 624.591C308.7 632.036 299.061 659.286 295.202 664.398L291.769 665.266C290.645 668.168 292.912 670.098 292.366 671.403C290.143 676.712 285.372 682.648 281.865 687.284C281.364 687.947 282.815 688.749 280.808 690.789C279.259 690.938 276.538 690.893 275.595 691.71L276.709 693.584L276.433 694.464C275.261 694.686 274.439 694.843 273.278 695.16L273.878 696.875L273.336 697.631C271.211 697.744 268.616 697.656 266.789 698.583C266.354 701.46 269.599 699.954 266.923 704.263C264.315 705.712 263.751 704.937 261.121 703.58C257.859 705.252 261.291 707.692 255.486 707.466L255.065 706.701L255.507 706.01L258.136 706.054L258.599 705.219L258.193 704.393C252.434 703.113 250.754 709.381 248.067 709.559C243.909 705.613 237.723 706.258 235.196 701.871C235.109 699.489 236.141 698.478 237.672 696.497C236.528 694.587 231.96 691.946 231.693 691.141C227.85 679.31 232.869 665.382 236.503 654.087C237.298 651.613 237.337 642.788 237.651 639.598C238.312 632.883 242.82 617.796 239.736 612.452C233.339 635.821 215.008 698.906 241.245 713.521C241.415 715.945 241.381 716.112 242.36 718.284C242.984 718.787 243.359 719.165 244.057 719.535C229.561 724.938 210.939 723.719 196.666 718.881C161.868 707.275 149.738 672.153 153.701 638.176C162.134 565.454 188.577 495.937 199.878 423.761C202.4 407.652 207.208 376.321 187.534 370.464C188.188 367.911 188.191 367.443 189.604 365.301C212.43 361.009 238.589 360.331 258.601 374.028C271.046 382.547 279.318 396.262 282.07 410.983C288.825 447.106 263.468 527.059 252.881 563.928C248.592 578.864 244.677 593.956 240.777 608.999C241.257 611.344 241.403 613.573 242.976 615.018C244.819 614.688 244.867 614.692 246.739 614.816C248.687 615.889 248.982 616.244 250.301 618.045L249.849 614.573C248.221 613.427 247.026 613.832 244.707 613.813L244.177 613.235C243.115 605.445 249.562 588.627 251.659 580.508C251.659 580.508 253.553 579.226 253.779 579.073C254.456 577.364 253.918 576.125 253.81 574.301C253.577 570.348 254.497 571.619 255.99 570.755C256.225 570.619 255.772 563.969 255.905 562.81C256.311 559.275 257.862 562.778 258.674 559.874C259.893 555.513 259.227 548.33 262.617 545.18C263.683 544.19 261.874 540.925 262.286 539.383C263.543 534.674 265.543 528.742 266.989 524.146C272.296 519.983 268.201 519.514 269.272 514.063C270.278 508.943 276.139 497.614 275.874 492.894C275.425 484.921 281.254 485.603 281.524 481.674C280.949 481.248 280.168 480.762 279.717 480.213C276.547 476.359 282.084 472.333 283.43 469.11C284.801 465.824 287.096 425.12 286.992 419.724C293.423 413.79 288.672 414.102 293.214 407.245C294.879 404.731 301.596 402.886 303.558 399.165C302.945 397.986 303.398 398.413 302.216 397.866C299.775 400.59 297.372 402.822 294.326 404.843L292.556 403.625C290.459 404.441 291.804 407.938 289.17 409.704C283.131 406.655 284.574 401.35 285.431 396.006C284.671 395.788 284.128 395.609 283.387 395.334L283.444 393.362L282.891 392.778L281.102 394.639L280.039 394.603C277.421 391.99 277.953 384.745 273.326 383.339C272.269 383.018 271.651 382.509 271.079 381.573C271.422 379.225 274.369 378.083 276.565 376.303C274.357 375.433 273.503 376.515 271.526 376.529C267.689 376.558 259.432 370.37 256.452 368.181C253.971 364.977 245.472 364.194 243.137 362.368C236.492 357.17 235.234 352.287 225.654 356.918C217.669 360.778 200.277 358.293 191.29 360.471C188.714 361.096 184.057 364.12 180.523 365.039C171.649 361.561 156.187 373.694 148.535 371.112C141.18 380.074 142.234 378.522 131.11 379.37C129.398 379.5 127.432 382.052 125.946 382.56C123.851 383.277 122.163 382.364 120.103 383.635L120.194 384.357C122.523 386.728 124.427 388.971 127.764 389.639C131.675 387.793 134.981 383.779 138.738 381.52C147.608 376.188 154.287 370.363 165.074 371.77C161.849 372.991 159.935 373.389 157.426 375.703C152.389 378.256 147.902 380.253 142.963 383.364C138.858 385.95 132.23 393.27 127.5 393.542C123.717 393.76 123.238 395.231 120.93 397.74ZM183.822 383.094L184.355 383.362C186.497 381.418 188.298 379.803 188.42 376.788C187.336 375.913 187.173 376.056 185.74 375.877C183.67 375.968 180.754 375.79 179.15 376.702C180.061 377.375 180.825 377.947 181.78 378.561C181.77 381.135 181.247 381.754 183.822 383.094ZM373.242 420.135C374.962 415.45 374.579 413.845 372.935 409.374L372.306 408.773C370.644 412.038 370.797 417.434 373.242 420.135ZM127.963 410.21C132.665 409.884 132.911 410.62 136.545 410.809L136.763 409.933C137.044 408.839 137.146 408.616 137.69 407.587L137 406.602C131.999 410.097 131.174 407.818 126.279 409.977L126.005 410.664C127.476 410.712 126.866 410.964 127.963 410.21ZM371.888 434.762C372.107 433.013 372.265 431.63 372.353 429.872L371.672 429.047C371 431.216 370.561 431.893 371.089 433.986L371.888 434.762ZM170.81 377.847C172.549 382.089 177.061 382.004 180.675 380.218L179.417 379.343C174.635 380.378 174.779 379.112 170.81 377.847ZM444.427 381.139L444.162 382.525C447.341 382.997 446.262 382.437 448.425 384.434L448.622 383.025C447.243 381.357 446.757 381.129 444.427 381.139ZM151.484 701.66C152.783 700.143 152.977 694.182 151.644 692.821C150.908 695.265 149.776 698.151 149.953 700.598C150.89 701.581 150.343 701.356 151.484 701.66ZM224.534 728.405C228.042 730.317 227.833 730.918 231.778 729.511L231.625 728.537C228.852 728.148 227.281 728.279 224.534 728.405ZM223.33 730.591C221.321 730.614 219.673 730.258 218.315 731.256L219.022 732.761C221.257 732.285 221.661 732.262 223.653 731.235L223.594 730.627L223.33 730.591Z"/><path transform="matrix(0.220439 0 0 0.219727 0 6.10352e-05)" d="M189.604 365.301C212.43 361.009 238.589 360.331 258.601 374.028C271.046 382.547 279.318 396.262 282.07 410.983C288.825 447.106 263.468 527.059 252.881 563.928C248.592 578.864 244.677 593.956 240.777 608.999L239.736 612.452C233.339 635.821 215.008 698.906 241.245 713.521C241.415 715.945 241.381 716.112 242.36 718.284C242.984 718.787 243.359 719.165 244.057 719.535C229.561 724.938 210.939 723.719 196.666 718.881C161.868 707.275 149.738 672.153 153.701 638.176C162.134 565.454 188.577 495.937 199.878 423.761C202.4 407.652 207.208 376.321 187.534 370.464C188.188 367.911 188.191 367.443 189.604 365.301Z"/><path transform="matrix(0.220439 0 0 0.219727 0 6.10352e-05)" d="M259.481 712.233L260.671 713.105C254.669 714.787 250.923 717.769 244.057 719.535C243.359 719.165 242.984 718.787 242.36 718.284C241.381 716.112 241.415 715.945 241.245 713.521C249.604 715.416 251.566 714.464 259.481 712.233Z"/><path transform="matrix(0.220439 0 0 0.219727 0 6.10352e-05)" d="M166.946 371.185C168.9 370.328 187.106 365.802 189.604 365.301C188.191 367.443 188.188 367.911 187.534 370.464C182.425 369.802 172.77 371.216 167.316 372.131L166.946 371.185Z"/><path transform="matrix(0.220439 0 0 0.219727 0 6.10352e-05)" d="M270.89 704.378C268.453 708.736 264.894 710.695 260.671 713.105L259.481 712.233C263.29 709.701 267.269 707.153 270.89 704.378Z"/><path transform="matrix(0.220439 0 0 0.219727 0 6.10352e-05)" d="M165.074 371.77L166.946 371.185L167.316 372.131C164.72 373.442 160.286 376.029 157.426 375.703C159.935 373.389 161.849 372.991 165.074 371.77Z"/><path transform="matrix(0.220439 0 0 0.219727 0 6.10352e-05)" d="M938.127 718.468C939.689 718.263 941.247 718.019 942.797 717.737C974.525 711.711 991.269 681.541 996.862 652.344C1006.63 601.318 958.504 575.65 925.973 547.175C920.562 542.439 915.708 537.446 910.787 532.232C875.782 498.982 860.885 444.611 889.007 402.144C894.698 393.55 902.318 386.769 910.778 380.517C927.194 368.383 943.894 363.571 963.551 359.973C965.083 364.318 964.842 364.319 968.877 366.587C956.054 373.876 949.479 383.042 945.868 397.296C936.131 435.735 968.515 463.696 994.766 486.805C1040.4 526.98 1083.57 565.245 1065.57 632.634C1057.49 662.146 1038.09 687.278 1011.59 702.566C993.436 713 962.661 722.988 941.628 723.232C939.792 723.371 939.75 723.443 937.877 723.009C937.198 721.556 937.782 720.322 938.127 718.468Z"/><path transform="matrix(0.220439 0 0 0.219727 0 6.10352e-05)" d="M652.445 375.971C677.377 363.397 712.658 357.958 739.553 366.987C788.347 383.405 781.574 435.235 772.308 475.115C760.638 525.337 744.894 574.028 732.576 624.042C727.432 644.93 710.792 704.12 739.329 714.13C740.092 714.407 740.87 714.641 741.66 714.831L740.217 715.491L739.806 716.775C740.537 718.177 740.427 718.19 741.711 719.063C727.184 725.121 707.026 724.49 692.304 719.362C670.962 711.929 653.849 691.335 649.776 669.176C637.785 603.948 714.894 418.908 694.859 379.501C692.771 375.394 689.363 372.23 684.894 370.938C675.95 368.353 661.317 372.331 653.487 376.774L652.445 375.971Z"/><path transform="matrix(0.220439 0 0 0.219727 0 6.10352e-05)" d="M369.523 378.181C388.396 372.562 417.814 375.728 435.123 384.879C454.363 395.052 463.415 418.892 461.676 439.862C459.67 464.058 454.802 488.757 450.043 512.58C440.143 561.291 429.472 610.221 418.4 658.666C415.461 671.361 412.608 684.077 409.84 696.81C408.592 702.624 406.849 708.953 406.271 714.797C399.836 712.342 394.248 709.73 387.6 707.795C361.954 700.332 342.671 706.246 318.839 714.446C333.139 646.332 350.134 578.595 364.303 510.15C368.711 489.259 372.661 468.275 376.153 447.212C379.043 429.771 389.824 388.163 364.928 383.546C363.976 383.372 363.023 383.211 362.067 383.063C363.548 383.042 364.481 382.995 365.954 382.854C367.261 381.457 367.338 381.8 367.678 380.208C368.328 379.529 368.902 378.887 369.523 378.181Z"/><path transform="matrix(0.220439 0 0 0.219727 0 6.10352e-05)" d="M553.714 378.519C568.372 379.093 582.011 381.286 595.061 388.387C624.857 404.6 629.155 442.344 612.493 469.724C604.471 482.907 594.139 489.586 579.321 493.345C560.132 496.208 542.594 488.66 533.029 471.398C527.755 461.881 527.574 454.325 527.444 443.862C527.156 420.786 539.495 402.852 559.851 392.67C561.853 391.628 566.463 388.829 568.264 387.111C568.703 385.57 569.074 384.27 569.377 383.209C565.608 380.413 557.962 380.999 553.714 378.519Z"/><path transform="matrix(0.220439 0 0 0.219727 0 6.10352e-05)" d="M771.009 216.532C828.733 210.843 837.833 311.136 772.082 322.868C747.653 323.073 728.306 311.827 724.256 286.509C718.89 252.961 736.784 222.281 771.009 216.532Z"/><path transform="matrix(0.220439 0 0 0.219727 0 6.10352e-05)" d="M274.995 216.512C275.156 216.486 275.316 216.46 275.477 216.434C285.539 215.074 295.721 217.872 303.676 224.182C338.584 252.041 322.652 317.895 274.984 322.693C236.042 324.934 219.219 285.369 231.613 252.917C239.947 231.095 252.325 220.814 274.995 216.512Z"/><path transform="matrix(0.220439 0 0 0.219727 0 6.10352e-05)" d="M827.761 591.27L828.285 593.152C803.564 633.432 819.529 681.712 859.025 704.355C881.87 717.452 912.381 722.338 938.127 718.468C937.782 720.322 937.198 721.556 937.877 723.009C939.75 723.443 939.792 723.371 941.628 723.232C916.177 728.164 875.858 717.952 853.769 704.006C816.224 680.303 801.765 629.72 827.761 591.27Z"/><path transform="matrix(0.220439 0 0 0.219727 0 6.10352e-05)" d="M976.892 357.904C990.364 355.13 999.809 357.279 1013.23 359.359C1036.01 362.89 1059.68 375.081 1072.1 395.092L1070.2 396.164C1049.36 366.67 1019.03 357.445 984.213 361.901C983.239 359.044 981.078 361.915 976.892 357.904Z"/><path transform="matrix(0.220439 0 0 0.219727 0 6.10352e-05)" d="M1044.92 468.247C1028.94 468.252 1018.75 466.289 1007.94 453.311C998.277 441.696 1000.07 421.085 1012.71 412.232C1014 411.327 1015.41 410.245 1017.06 410.478C1016.3 412.301 1012.31 414.378 1010.71 416.046C1001.49 425.618 1001.21 444.776 1010.62 454.254C1020.64 464.339 1031.11 466.525 1044.81 466.846L1044.92 468.247Z"/><path transform="matrix(0.220439 0 0 0.219727 0 6.10352e-05)" d="M833.368 583.244C847.326 573.724 855.289 564.521 873.531 562.818L873.034 563.88L875.074 564.396C863.188 566.433 850.463 572.643 841.053 580.228C837.776 582.869 836.412 585.941 832.26 588.26C832.836 586.997 832.989 586.81 833.23 585.463L831.788 584.983L833.368 583.244Z"/><path transform="matrix(0.220439 0 0 0.219727 0 6.10352e-05)" d="M1072.1 395.092C1078.8 405.419 1079.98 423.105 1077.48 434.93C1076.26 440.683 1073.99 445.652 1071.45 450.896L1069.06 451.05C1079.74 434.648 1079.74 413.113 1070.2 396.164L1072.1 395.092Z"/><path transform="matrix(0.220439 0 0 0.219727 0 6.10352e-05)" d="M963.551 359.973L976.892 357.904C981.078 361.915 983.239 359.044 984.213 361.901C976.685 362.926 975.472 363.106 968.877 366.587C964.842 364.319 965.083 364.318 963.551 359.973Z"/><path transform="matrix(0.220439 0 0 0.219727 0 6.10352e-05)" d="M352.722 381.628C355.315 381.361 363.925 378.86 369.523 378.181C368.902 378.887 368.328 379.529 367.678 380.208C367.338 381.8 367.261 381.457 365.954 382.854C364.481 382.995 363.548 383.042 362.067 383.063C357.508 383.515 354.313 384.042 349.799 384.91L347.462 383.719L352.722 381.628Z"/><path transform="matrix(0.220439 0 0 0.219727 0 6.10352e-05)" d="M521.367 385.502C525.893 382.479 543.144 378.858 548.698 379.985C543.19 382.192 529.532 382.841 522.452 386.465L521.367 385.502Z"/><path transform="matrix(0.220439 0 0 0.219727 0 6.10352e-05)" d="M504.031 395.952C509.385 392.234 515.54 388.367 521.367 385.502L522.452 386.465C517.122 389.956 510.306 394.381 504.649 397.226L504.031 395.952Z"/><path transform="matrix(0.220439 0 0 0.219727 0 6.10352e-05)" d="M741.66 714.831C746.959 715.184 749.251 714.057 754.259 712.349L754.609 713.407C750.003 715.715 746.653 717.532 741.711 719.063C740.427 718.19 740.537 718.177 739.806 716.775L740.217 715.491L741.66 714.831Z"/><path transform="matrix(0.220439 0 0 0.219727 0 6.10352e-05)" d="M873.531 562.818C881.112 562.53 891.11 561.503 897.458 566.63C887.857 563.889 884.899 563.45 875.074 564.396L873.034 563.88L873.531 562.818Z"/><path transform="matrix(0.220439 0 0 0.219727 0 6.10352e-05)" d="M1044.81 466.846C1047.87 466.296 1054.43 463.476 1057.58 462.211L1058.92 463.429C1053.91 465.868 1050.43 467.129 1044.92 468.247L1044.81 466.846Z"/><path transform="matrix(0.220439 0 0 0.219727 0 6.10352e-05)" d="M327.514 392.241C330.569 391.262 331.788 390.361 334.443 388.682L334.445 390.533C331.065 392.569 327.701 394.201 324.573 396.064L323.514 394.267L327.514 392.241Z"/><path transform="matrix(0.220439 0 0 0.219727 0 6.10352e-05)" d="M504.649 397.226C501.847 399.323 497.589 403.711 494.862 404.906C495.501 402.388 501.704 397.191 504.031 395.952L504.649 397.226Z"/><path transform="matrix(0.220439 0 0 0.219727 0 6.10352e-05)" d="M1069.06 451.05L1071.45 450.896L1064.84 459.278L1062.91 458.556C1064.04 456.651 1067.14 453.839 1069.06 451.05Z"/><path transform="matrix(0.220439 0 0 0.219727 0 6.10352e-05)" d="M653.487 376.774C650.571 378.654 648.074 380.65 644.75 381.435L644.278 380.95C646.134 378.729 649.77 377.003 652.445 375.971L653.487 376.774Z"/><path transform="matrix(0.220439 0 0 0.219727 0 6.10352e-05)" d="M793.164 671.114C793.06 672.637 788.56 679.466 787.464 681.25L786.793 681.058L786.742 680.137C788.26 676.736 789.829 673.028 793.164 671.114Z"/><path transform="matrix(0.220439 0 0 0.219727 0 6.10352e-05)" d="M831.788 584.983L833.23 585.463C832.989 586.81 832.836 586.997 832.26 588.26L828.285 593.152L827.761 591.27C829.226 588.544 829.781 587.458 831.788 584.983Z"/><path transform="matrix(0.220439 0 0 0.219727 0 6.10352e-05)" d="M762.285 708.14C763.625 706.981 768.272 702.669 769.244 701.958L770.594 702.697L770.784 702.393L770.117 701.442L771.024 701.449C769.473 704.065 765.253 707.693 762.726 709.429L762.285 708.14Z"/><path transform="matrix(0.220439 0 0 0.219727 0 6.10352e-05)" d="M638.419 384.011L639.311 384.111L639.538 384.574C636.485 386.89 633.99 388.992 631.09 391.506L630.415 391.161C632.047 388.256 635.618 385.722 638.419 384.011Z"/><path transform="matrix(0.220439 0 0 0.219727 0 6.10352e-05)" d="M341.826 385.727L343.396 386.702C340.91 387.722 336.691 389.327 334.445 390.533L334.443 388.682L341.826 385.727Z"/><path transform="matrix(0.220439 0 0 0.219727 0 6.10352e-05)" d="M322.013 394.839L323.514 394.267L324.573 396.064L321.347 399.389L320.086 399.232L319.759 398.321C320.585 396.867 321.031 396.204 322.013 394.839Z"/><path transform="matrix(0.220439 0 0 0.219727 0 6.10352e-05)" d="M762.285 708.14L762.726 709.429C760.218 710.485 756.456 712.756 754.609 713.407L754.259 712.349C757.029 710.777 759.422 709.542 762.285 708.14Z"/><path transform="matrix(0.220439 0 0 0.219727 0 6.10352e-05)" d="M1057.58 462.211C1059.73 460.912 1060.92 460.095 1062.91 458.556L1064.84 459.278C1062.85 460.716 1060.97 462.074 1058.92 463.429L1057.58 462.211Z"/><path transform="matrix(0.220439 0 0 0.219727 0 6.10352e-05)" d="M341.826 385.727C343.44 384.953 345.72 384.289 347.462 383.719L349.799 384.91L343.396 386.702L341.826 385.727Z"/><path transform="matrix(0.220439 0 0 0.219727 0 6.10352e-05)" d="M396.656 1021.26L398.66 1021.41C397.08 1022.86 388.206 1022.45 385.812 1021.78C389.63 1021.71 392.864 1021.67 396.656 1021.26Z"/><path transform="matrix(0.220439 0 0 0.219727 0 6.10352e-05)" d="M385.812 1021.78C388.761 1020.73 393.481 1021.13 396.656 1021.26C392.864 1021.67 389.63 1021.71 385.812 1021.78Z"/><path transform="matrix(0.220439 0 0 0.219727 0 6.10352e-05)" d="M50.2166 1019.96C72.473 1020.31 96.745 1018.53 118.288 1019.53C122.667 1019.5 128.131 1019.3 132.419 1019.47C132.517 1022.3 132.992 1020.78 133.394 1022.62L132.498 1021.93C132.734 1023.22 132.899 1022.94 134.338 1024L126.811 1024L0 1024L0 1019.78C16.7097 1019.78 33.5386 1020.1 50.2166 1019.96Z"/><path transform="matrix(0.220439 0 0 0.219727 0 6.10352e-05)" d="M50.2166 1019.96C72.473 1020.31 96.745 1018.53 118.288 1019.53L122.016 1020.16L122.187 1020.5C118.79 1022.4 102.815 1020.76 100.808 1021.98C85.8695 1022.04 64.5739 1022.43 49.768 1020.74L50.2166 1019.96Z"/><path transform="matrix(0.220439 0 0 0.219727 0 6.10352e-05)" d="M118.288 1019.53C122.667 1019.5 128.131 1019.3 132.419 1019.47C132.517 1022.3 132.992 1020.78 133.394 1022.62L132.498 1021.93C132.734 1023.22 132.899 1022.94 134.338 1024L126.811 1024L125.929 1022.87C120.652 1021.37 107.043 1021.93 100.808 1021.98C102.815 1020.76 118.79 1022.4 122.187 1020.5L122.016 1020.16L118.288 1019.53Z"/><path transform="matrix(0.220439 0 0 0.219727 0 6.10352e-05)" d="M142.199 1020.08C164.048 1019.96 190.873 1019.78 212.614 1020.47C216.231 1023.4 216.24 1023.77 221.527 1023.03C237.085 1020.82 252.869 1022.46 268.751 1021.83C271.285 1022.09 273.159 1022.26 275.673 1022.79L276.058 1023.48L275.737 1024L213.173 1024C212.711 1022.85 212.653 1022.64 211.212 1022.31C208.974 1021.85 206.636 1021.93 204.367 1021.91C184.093 1021.75 163.786 1022.6 143.54 1021.22C143.093 1020.84 142.646 1020.46 142.199 1020.08Z"/><path transform="matrix(0.220439 0 0 0.219727 0 6.10352e-05)" d="M212.614 1020.47C256.851 1020.56 301.148 1019.73 345.357 1021.04C348.808 1021.15 362.519 1020.35 364.91 1021.41C361.36 1021.85 357.649 1021.28 354.458 1021.69C342.1 1023.25 330.649 1022.34 318.281 1021.87C310.353 1021.57 302.131 1022.93 294.074 1021.85C283.512 1021.09 279.189 1020.81 268.751 1021.83C252.869 1022.46 237.085 1020.82 221.527 1023.03C216.24 1023.77 216.231 1023.4 212.614 1020.47Z"/><path transform="matrix(0.220439 0 0 0.219727 0 6.10352e-05)" d="M132.419 1019.47C136.111 1019.92 138.467 1020.02 142.199 1020.08C142.646 1020.46 143.093 1020.84 143.54 1021.22C163.786 1022.6 184.093 1021.75 204.367 1021.91C206.636 1021.93 208.974 1021.85 211.212 1022.31C212.653 1022.64 212.711 1022.85 213.173 1024L134.338 1024C132.899 1022.94 132.734 1023.22 132.498 1021.93L133.394 1022.62C132.992 1020.78 132.517 1022.3 132.419 1019.47Z"/><path transform="matrix(0.220439 0 0 0.219727 0 6.10352e-05)" d="M268.751 1021.83C279.189 1020.81 283.512 1021.09 294.074 1021.85C291.154 1022.13 280.529 1022.77 278.768 1024L275.737 1024L276.058 1023.48L275.673 1022.79C273.159 1022.26 271.285 1022.09 268.751 1021.83Z"/></g></svg>